<svg xmlns="http://www.w3.org/2000/svg" version="1.1" xmlns:xlink="http://www.w3.org/1999/xlink" xmlns:svgjs="http://svgjs.dev/svgjs" width="1000" height="623" viewBox="0 0 1000 623"><g transform="matrix(1,0,0,1,-0.6060606060606233,0.2522267206477409)"><svg viewBox="0 0 396 247" data-background-color="#ffffff" preserveAspectRatio="xMidYMid meet" height="623" width="1000" xmlns="http://www.w3.org/2000/svg" xmlns:xlink="http://www.w3.org/1999/xlink"><g id="tight-bounds" transform="matrix(1,0,0,1,0.2400000000000091,-0.09999999999999432)"><svg viewBox="0 0 395.52 247.2" height="247.2" width="395.52"><g><svg></svg></g><g><svg viewBox="0 0 395.52 247.2" height="247.2" width="395.52"><mask id="47197041-bb1d-47d1-97b7-10e3b5f3063a"><rect width="640" height="400" fill="white"></rect><rect width="284.2008034037222" height="201.6701325453931" fill="black" y="22.764933727303443" x="55.65959829813889" id="transform-me"></rect></mask><g transform="matrix(1,0,0,1,68.57781663467173,37.08)"><svg viewBox="0 0 258.3643667306565 173.04" height="173.04" width="258.3643667306565"><g><svg viewBox="0 0 258.3643667306565 173.04" height="173.04" width="258.3643667306565"><g><svg viewBox="0 0 316.416 211.92018594839482" height="173.04" width="258.3643667306565"><g><svg viewBox="0 0 316.416 211.92018594839482" height="211.92018594839482" width="316.416"><g id="textblocktransform"><svg viewBox="0 0 316.416 211.92018594839482" height="211.92018594839482" width="316.416" id="textblock"><g><svg viewBox="0 0 316.416 120.14133599202393" height="120.14133599202393" width="316.416"><g transform="matrix(1,0,0,1,0,0)"><svg width="316.416" viewBox="0.24000000953674316 -40.15999984741211 146.9199981689453 55.790000915527344" height="120.14133599202393" data-palette-color="url(#3e7055e8-b182-41b6-94da-099ee158058b)"></svg></g></svg></g><g transform="matrix(1,0,0,1,0,137.67284030532403)"><svg viewBox="0 0 316.416 74.24734564307079" height="74.24734564307079" width="316.416"><g transform="matrix(1,0,0,1,0,0)"><svg width="316.416" viewBox="2.5900001525878906 -37.0099983215332 161.47000122070312 37.88999938964844" height="74.24734564307079" data-palette-color="url(#bc070e74-00a5-492e-a4a2-3f79aec4803d)"><g class="slogan-text-1" data-fill-palette-color="secondary" id="text-1"></g></svg></g></svg></g></svg></g></svg></g><g></g></svg></g></svg></g></svg></g><g mask="url(#47197041-bb1d-47d1-97b7-10e3b5f3063a)"><g transform="matrix(3.4055555555555554, 0, 0, 3.4055555555555554, 34.29333333333332, 1)"><svg xmlns="http://www.w3.org/2000/svg" xmlns:xlink="http://www.w3.org/1999/xlink" version="1.1" x="0" y="0" viewBox="2 13.999998092651367 96 72" enable-background="new 0 0 100 100" xml:space="preserve" height="72" width="96" class="icon-none" data-fill-palette-color="accent" id="none"></svg></g></g></svg></g><defs></defs><mask id="ad1a4efd-5d91-4059-a793-6418eeaa9615"><g id="SvgjsG1672"><svg viewBox="0 0 395.52 247.2" height="247.2" width="395.52"><g><svg></svg></g><g><svg viewBox="0 0 395.52 247.2" height="247.2" width="395.52"><mask id="SvgjsMask1671"></mask><g transform="matrix(1,0,0,1,68.57781663467173,37.08)"><svg viewBox="0 0 258.3643667306565 173.04" height="173.04" width="258.3643667306565"><g><svg viewBox="0 0 258.3643667306565 173.04" height="173.04" width="258.3643667306565"><g><svg viewBox="0 0 316.416 211.92018594839482" height="173.04" width="258.3643667306565"><g><svg viewBox="0 0 316.416 211.92018594839482" height="211.92018594839482" width="316.416"><g id="SvgjsG1669"><svg viewBox="0 0 316.416 211.92018594839482" height="211.92018594839482" width="316.416" id="SvgjsSvg1668"><g><svg viewBox="0 0 316.416 120.14133599202393" height="120.14133599202393" width="316.416"><g transform="matrix(1,0,0,1,0,0)"><svg width="316.416" viewBox="0.24000000953674316 -40.15999984741211 146.9199981689453 55.790000915527344" height="120.14133599202393" data-palette-color="url(#3e7055e8-b182-41b6-94da-099ee158058b)"><path d="M0.24-0.2L0.24-1.15Q0.24-1.2 0.28-1.27 0.32-1.34 0.44-1.34L0.44-1.34Q0.9-1.34 1.61-1.39 2.32-1.44 3.11-1.57 3.91-1.71 4.71-1.95 5.52-2.2 6.15-2.56 6.79-2.93 7.19-3.44 7.59-3.96 7.59-4.66L7.59-4.66 7.59-29.69Q7.59-30.93 7.23-31.63 6.86-32.32 6.24-32.67 5.62-33.01 4.79-33.09 3.96-33.18 3-33.18L3-33.18 1.61-33.18Q1.49-33.18 1.45-33.25 1.42-33.33 1.42-33.37L1.42-33.37 1.42-34.35Q1.42-34.4 1.45-34.47 1.49-34.55 1.61-34.55L1.61-34.55Q1.64-34.55 1.87-34.56 2.1-34.57 2.69-34.57 3.27-34.57 4.27-34.58 5.27-34.59 6.88-34.59L6.88-34.59Q7.23-34.59 8.07-34.62 8.91-34.64 10-34.67 11.08-34.69 12.29-34.73 13.5-34.77 14.59-34.79 15.67-34.81 16.53-34.84 17.38-34.86 17.77-34.86L17.77-34.86Q19.02-34.86 20.54-34.78 22.07-34.69 23.62-34.4 25.17-34.11 26.64-33.56 28.1-33.01 29.24-32.09 30.37-31.18 31.05-29.83 31.74-28.49 31.74-26.61L31.74-26.61Q31.74-25.49 31.38-24.56 31.03-23.63 30.48-22.91 29.93-22.19 29.3-21.67 28.66-21.14 28.11-20.79 27.56-20.43 27.16-20.26 26.76-20.09 26.71-20.07L26.71-20.07Q28.1-19.29 29.36-18.36 30.62-17.43 31.57-16.27 32.52-15.11 33.07-13.72 33.62-12.33 33.62-10.64L33.62-10.64Q33.62-8.67 33.08-7.15 32.54-5.64 31.67-4.52 30.79-3.39 29.65-2.62 28.52-1.86 27.32-1.35 26.12-0.85 24.94-0.57 23.75-0.29 22.78-0.17 21.8-0.05 21.13-0.02 20.46 0 20.26 0L20.26 0 0.44 0Q0.32 0 0.28-0.07 0.24-0.15 0.24-0.2L0.24-0.2ZM14.67-18.29L14.67-6.49Q14.67-5.54 15.16-4.77 15.65-4 16.41-3.45 17.16-2.91 18.1-2.6 19.04-2.29 19.97-2.29L19.97-2.29Q21.53-2.29 22.73-2.88 23.93-3.47 24.71-4.52 25.49-5.57 25.89-7.02 26.29-8.47 26.29-10.21L26.29-10.21Q26.29-12.28 25.66-13.84 25.02-15.41 23.88-16.46 22.73-17.5 21.14-18.03 19.56-18.55 17.65-18.55L17.65-18.55 14.99-18.55Q14.75-18.55 14.71-18.47 14.67-18.38 14.67-18.29L14.67-18.29ZM15.19-20.8L18.99-20.8Q20.17-20.8 21.18-21.23 22.19-21.66 22.94-22.41 23.68-23.17 24.11-24.21 24.54-25.24 24.54-26.46L24.54-26.46Q24.54-28.32 24.08-29.53 23.63-30.74 22.75-31.45 21.88-32.15 20.57-32.43 19.26-32.71 17.55-32.71L17.55-32.71Q17.19-32.71 16.69-32.67 16.19-32.62 15.72-32.48 15.26-32.35 14.94-32.1 14.62-31.86 14.62-31.47L14.62-31.47 14.62-21.26Q14.62-21.19 14.7-21 14.77-20.8 15.19-20.8L15.19-20.8ZM38.01-11.4L38.01-11.4Q38.01-13.7 39.02-15.8 40.04-17.9 41.75-19.51 43.45-21.12 45.73-22.07 48-23.02 50.51-23.02L50.51-23.02Q53.15-23.02 55.52-22.12 57.88-21.22 59.68-19.64 61.47-18.07 62.52-15.93 63.57-13.79 63.57-11.3L63.57-11.3Q63.57-8.76 62.61-6.58 61.64-4.39 59.93-2.78 58.23-1.17 55.87-0.26 53.51 0.66 50.73 0.66L50.73 0.66Q47.97 0.66 45.64-0.28 43.31-1.22 41.61-2.84 39.91-4.47 38.96-6.67 38.01-8.86 38.01-11.4ZM44.26-12.94L44.26-12.94Q44.26-11.62 44.46-10.22 44.65-8.81 45.04-7.48 45.43-6.15 46.03-4.98 46.63-3.81 47.46-2.92 48.29-2.03 49.34-1.51 50.39-1 51.71-1L51.71-1Q53.15-1 54.18-1.75 55.22-2.49 55.89-3.69 56.56-4.88 56.88-6.37 57.2-7.86 57.2-9.35L57.2-9.35Q57.2-10.55 56.98-11.88 56.76-13.21 56.32-14.51 55.88-15.82 55.25-17.02 54.61-18.21 53.77-19.13 52.93-20.04 51.89-20.58 50.85-21.12 49.63-21.12L49.63-21.12Q48.26-21.12 47.25-20.37 46.24-19.63 45.58-18.44 44.92-17.26 44.59-15.81 44.26-14.36 44.26-12.94ZM78.8-23.02L78.8-23.02Q81.15-23.02 83-22.41 84.86-21.8 86.1-20.63L86.1-20.63Q87.64-20.68 89.05-20.8 90.45-20.92 92.06-20.92L92.06-20.92Q92.62-20.92 92.98-20.89 93.33-20.85 93.53-20.76 93.72-20.68 93.82-20.54 93.92-20.41 93.96-20.21L93.96-20.21Q94.14-19.6 94.21-19.12 94.28-18.63 94.28-18.12L94.28-18.12Q94.28-17.7 93.98-17.57 93.67-17.43 92.74-17.43L92.74-17.43 88.28-17.43Q88.62-16.87 88.95-16.11 89.28-15.36 89.28-14.18L89.28-14.18Q89.28-12.5 88.52-10.9 87.76-9.3 86.3-8.08 84.83-6.86 82.72-6.12 80.61-5.37 77.9-5.37L77.9-5.37Q77.07-5.37 76.56-5.43 76.04-5.49 75.48-5.64L75.48-5.64Q75.14-5.35 74.63-5.11 74.12-4.88 73.63-4.59 73.14-4.3 72.8-3.92 72.46-3.54 72.46-2.95L72.46-2.95Q72.46-1.93 74.25-1.48 76.04-1.03 80.05-1L80.05-1Q83.1-0.98 85.6-0.83 88.11-0.68 89.89-0.06 91.67 0.56 92.65 1.87 93.62 3.17 93.62 5.52L93.62 5.52Q93.62 6.49 93.16 7.63 92.7 8.76 91.76 9.89 90.82 11.01 89.4 12.05 87.98 13.09 86.07 13.88 84.15 14.67 81.73 15.15 79.32 15.63 76.41 15.63L76.41 15.63Q73.85 15.63 71.94 15.12 70.04 14.62 68.79 13.79 67.55 12.96 66.93 11.9 66.3 10.84 66.3 9.72L66.3 9.72Q66.3 8.86 66.65 8.18 66.99 7.5 67.55 6.92 68.11 6.35 68.81 5.85 69.5 5.35 70.21 4.82 70.92 4.3 71.58 3.72 72.24 3.15 72.72 2.42L72.72 2.42Q71.43 2.25 70.37 1.81 69.31 1.37 68.56 0.78 67.82 0.2 67.4-0.5 66.99-1.2 66.99-1.9L66.99-1.9Q66.99-2.56 67.34-3.05 67.7-3.54 68.27-3.92 68.84-4.3 69.58-4.61 70.31-4.93 71.09-5.22L71.09-5.22Q71.58-5.42 72.13-5.65 72.68-5.88 73.26-6.3L73.26-6.3Q70.36-7.47 68.87-9.35 67.38-11.23 67.38-13.7L67.38-13.7Q67.38-15.65 68.26-17.36 69.14-19.07 70.67-20.32 72.21-21.58 74.3-22.3 76.39-23.02 78.8-23.02ZM71.87 7.71L71.87 7.71Q71.87 8.74 72.49 9.78 73.12 10.82 74.18 11.65 75.24 12.48 76.68 13 78.12 13.53 79.76 13.53L79.76 13.53Q81.46 13.53 83.08 12.95 84.69 12.38 85.93 11.43 87.18 10.47 87.93 9.22 88.69 7.96 88.69 6.59L88.69 6.59Q88.69 5.79 88.43 5.18 88.18 4.57 87.74 4.15 87.3 3.74 86.71 3.49 86.13 3.25 85.49 3.2L85.49 3.2Q84.98 3.15 83.78 3.11 82.59 3.08 81.1 3.03L81.1 3.03Q80.2 3 79.32 2.99 78.44 2.98 77.69 2.95 76.95 2.93 76.35 2.91 75.75 2.88 75.41 2.83L75.41 2.83Q74.95 3.37 74.34 3.85 73.73 4.32 73.18 4.87 72.63 5.42 72.25 6.1 71.87 6.79 71.87 7.71ZM83.42-13.65L83.42-13.65Q83.42-15.53 83.03-17 82.64-18.48 81.92-19.49 81.2-20.51 80.22-21.03 79.24-21.56 78.07-21.56L78.07-21.56Q77.36-21.56 76.52-21.28 75.68-21 74.95-20.25 74.21-19.51 73.73-18.21 73.24-16.92 73.24-14.89L73.24-14.89Q73.24-13.6 73.53-12.18 73.82-10.77 74.47-9.57 75.12-8.37 76.14-7.6 77.17-6.84 78.63-6.84L78.63-6.84Q79.73-6.84 80.61-7.34 81.49-7.84 82.11-8.73 82.73-9.62 83.08-10.88 83.42-12.13 83.42-13.65ZM109.83-36.21L117.91-40.01Q118.01-40.06 118.12-40.11 118.23-40.16 118.28-40.16L118.28-40.16Q118.69-40.16 118.69-39.58L118.69-39.58 118.69-5.59Q118.69-4.52 119.24-4.05 119.79-3.59 120.89-3.59L120.89-3.59 122.31-3.69Q122.4-3.69 122.43-3.55 122.45-3.42 122.45-3.27L122.45-3.27Q122.45-3.22 122.39-3.14 122.33-3.05 122.09-2.95L122.09-2.95 113.74 0.51Q113.69 0.54 113.49 0.6 113.3 0.66 113.27 0.66L113.27 0.66Q113.1 0.66 113.07 0.45 113.03 0.24 113.03 0.05L113.03 0.05 113.03-1.64Q113.03-1.88 112.86-1.88L112.86-1.88Q112.79-1.88 112.64-1.81L112.64-1.81Q111.78-1.32 111.03-0.87 110.27-0.42 109.5-0.07 108.73 0.27 107.89 0.46 107.05 0.66 106.02 0.66L106.02 0.66Q103.83 0.66 102.07-0.24 100.31-1.15 99.09-2.66 97.87-4.17 97.21-6.13 96.55-8.08 96.55-10.21L96.55-10.21Q96.55-12.77 97.56-14.97 98.58-17.16 100.27-18.77 101.97-20.39 104.22-21.3 106.46-22.22 108.93-22.22L108.93-22.22Q109.59-22.22 110.08-22.09 110.56-21.97 110.98-21.84 111.39-21.7 111.81-21.58 112.22-21.46 112.74-21.46L112.74-21.46Q112.81-21.46 112.92-21.51 113.03-21.56 113.03-21.78L113.03-21.78 113.03-33.28Q113.03-33.86 112.71-34.19 112.39-34.52 111.91-34.69 111.42-34.86 110.86-34.97 110.3-35.08 109.78-35.23L109.78-35.23Q109.64-35.28 109.55-35.36 109.47-35.45 109.47-35.72L109.47-35.72Q109.47-35.84 109.54-35.96 109.61-36.08 109.83-36.21L109.83-36.21ZM102.09-11.3L102.09-11.3Q102.09-9.55 102.49-7.92 102.9-6.3 103.74-5.07 104.58-3.83 105.88-3.1 107.17-2.37 108.93-2.37L108.93-2.37Q109.2-2.37 109.88-2.51 110.56-2.66 111.26-2.89 111.96-3.13 112.49-3.44 113.03-3.76 113.03-4.13L113.03-4.13 113.03-16.26Q113.03-17.94 111.82-18.99 110.61-20.04 108.37-20.04L108.37-20.04Q106.73-20.04 105.55-19.27 104.36-18.51 103.59-17.26 102.82-16.02 102.46-14.45 102.09-12.89 102.09-11.3ZM137.69-2.71L134.83-0.49Q134.02 0.07 132.92 0.39 131.83 0.71 130.73 0.71L130.73 0.71Q127.75 0.71 126.2-0.63 124.65-1.98 124.65-4.27L124.65-4.27Q124.65-5.59 125.25-6.54 125.84-7.5 127.02-8.23 128.19-8.96 129.91-9.56 131.63-10.16 133.9-10.74L133.9-10.74Q135.12-11.06 135.87-11.43 136.61-11.79 137.25-12.13L137.25-12.13Q137.66-12.35 137.72-12.52 137.78-12.7 137.78-12.84L137.78-12.84 137.78-17.09Q137.78-17.9 137.55-18.59 137.32-19.29 136.86-19.8 136.39-20.31 135.73-20.61 135.07-20.9 134.24-20.9L134.24-20.9Q133.53-20.9 132.92-20.65 132.31-20.41 131.87-19.95 131.44-19.48 131.18-18.85 130.92-18.21 130.92-17.41L130.92-17.41Q130.92-17.33 130.93-17.19 130.95-17.04 130.97-16.88 131-16.72 131.02-16.6 131.04-16.48 131.04-16.46L131.04-16.46Q131.02-16.41 130.64-16.26 130.26-16.11 129.71-15.93 129.16-15.75 128.51-15.56 127.85-15.38 127.25-15.21 126.65-15.04 126.2-14.9 125.75-14.77 125.58-14.75L125.58-14.75Q125.31-14.75 125.25-15.03 125.19-15.31 125.19-15.58L125.19-15.58Q125.19-16.99 126.04-18.33 126.89-19.68 128.32-20.72 129.75-21.75 131.61-22.39 133.46-23.02 135.44-23.02L135.44-23.02Q137.2-23.02 138.59-22.57 139.98-22.12 140.96-21.33 141.93-20.53 142.45-19.49 142.96-18.46 142.96-17.29L142.96-17.29 142.96-5.64Q142.96-5 143.43-4.5 143.91-4 144.67-4L144.67-4Q145.11-4 145.46-4.16 145.82-4.32 146.1-4.53 146.38-4.74 146.57-4.9 146.77-5.05 146.91-5.05L146.91-5.05Q147.11-5.05 147.13-4.9 147.16-4.74 147.16-4.61L147.16-4.61Q147.16-4.2 147.05-3.77 146.94-3.34 146.67-3.15L146.67-3.15Q145.47-2.25 144.55-1.53 143.62-0.81 142.86-0.29 142.1 0.22 141.49 0.49 140.88 0.76 140.35 0.76L140.35 0.76Q139.86 0.76 139.48 0.49 139.1 0.22 138.82-0.17 138.54-0.56 138.34-1.01 138.15-1.46 138.01-1.86 137.88-2.25 137.81-2.49 137.73-2.73 137.69-2.71L137.69-2.71ZM130.34-4.86L130.34-4.86Q130.34-4.2 130.59-3.78 130.85-3.37 131.26-3.15 131.68-2.93 132.2-2.84 132.73-2.76 133.29-2.76L133.29-2.76Q133.8-2.76 134.56-3.02 135.32-3.27 136.04-3.7 136.76-4.13 137.27-4.68 137.78-5.22 137.78-5.79L137.78-5.79 137.78-9.81Q137.78-10.08 137.59-10.08L137.59-10.08Q137.54-10.08 137.49-10.06L137.49-10.06 131.83-7.42Q131.48-7.18 131.2-6.97 130.92-6.76 130.73-6.48 130.53-6.2 130.43-5.82 130.34-5.44 130.34-4.86Z" opacity="1" transform="matrix(1,0,0,1,0,0)" fill="white" class="wordmark-text-0" id="SvgjsPath1667"></path></svg></g></svg></g><g transform="matrix(1,0,0,1,0,137.67284030532403)"><svg viewBox="0 0 316.416 74.24734564307079" height="74.24734564307079" width="316.416"><g transform="matrix(1,0,0,1,0,0)"><svg width="316.416" viewBox="2.5900001525878906 -37.0099983215332 161.47000122070312 37.88999938964844" height="74.24734564307079" data-palette-color="url(#bc070e74-00a5-492e-a4a2-3f79aec4803d)"><g class="slogan-text-1" data-fill-palette-color="secondary" id="SvgjsG1666"><path d="M2.59-1.37L2.59-35.84Q2.59-36.11 2.89-36.32 3.2-36.52 3.78-36.63 4.37-36.74 4.96-36.82 5.54-36.89 6.36-36.91 7.18-36.94 7.71-36.94 8.25-36.94 8.95-36.93 9.64-36.91 9.77-36.91L9.77-36.91 12.5-36.91Q13.31-36.91 14.76-36.96 16.21-37.01 16.89-37.01L16.89-37.01Q28.54-37.01 33.54-33.01L33.54-33.01 34.42-32.23Q34.84-31.84 35.35-31.21 35.86-30.59 36.61-29.33 37.35-28.08 37.94-26.61 38.53-25.15 38.94-23 39.36-20.85 39.36-18.55L39.36-18.55Q39.36-14.99 38.38-11.89 37.4-8.79 35.71-6.52 34.01-4.25 31.73-2.6 29.44-0.95 26.78-0.13 24.12 0.68 21.29 0.68L21.29 0.68 20.51 0.68Q19.46 0.68 17.38 0.63 15.31 0.59 14.26 0.59L14.26 0.59Q8.13 0.59 3.17 0.78L3.17 0.78Q2.59-0.39 2.59-1.37L2.59-1.37ZM16.94-7.81L16.94-7.81Q18.41-7.81 19.58-8.14 20.75-8.47 21.56-9.01 22.36-9.55 22.97-10.38 23.58-11.21 23.94-12.08 24.29-12.96 24.5-14.1 24.71-15.23 24.78-16.25 24.85-17.26 24.85-18.51L24.85-18.51 24.85-20.02Q24.85-24.51 23.07-26.65 21.29-28.78 16.85-28.91L16.85-28.91Q16.72-28.64 16.46-28.17 16.19-27.71 16.06-27.44L16.06-27.44 16.06-26.27Q16.06-25.9 16.04-24.37L16.04-24.37Q15.72-8.01 16.94-7.81ZM69.1-0.88L69.1-0.88 69.1-1.81Q69.1-5.98 69.2-14.14 69.3-22.29 69.3-26.46L69.3-26.46 69.3-36.57 97.72-36.57 97.72-28.56Q97.72-28.49 97.72-28.2 97.72-27.91 97.72-27.81 97.72-27.71 97.69-27.45 97.67-27.2 97.61-27.1 97.55-27 97.44-26.82 97.33-26.64 97.18-26.56 97.03-26.49 96.79-26.43 96.55-26.37 96.25-26.37L96.25-26.37 95.57-26.37Q89.25-26.37 84.05-26.56L84.05-26.56Q84-26.17 83.89-25.35 83.78-24.54 83.72-23.91 83.66-23.29 83.66-22.71L83.66-22.71 95.28-22.71Q96.01-22.71 96.25-22.51 96.5-22.31 96.5-21.88L96.5-21.88Q96.5-21.75 96.47-21.48 96.45-21.22 96.45-21.09L96.45-21.09Q96.45-19.92 96.52-17.63 96.6-15.33 96.6-14.16L96.6-14.16Q96.52-13.67 96.2-13.67L96.2-13.67Q96.06-13.67 95.96-13.77L95.96-13.77Q88.25-13.38 84.53-13.38L84.53-13.38 83.9-13.38 83.9-9.86Q86.07-9.86 90.19-10.06 94.3-10.25 96.35-10.25L96.35-10.25Q97.96-10.25 98.21-9.57L98.21-9.57 98.21-7.71Q98.21-6.54 98.26-4.25 98.3-1.95 98.3-0.78L98.3-0.78Q98.3 0.44 97.33 0.44L97.33 0.44Q96.06 0.44 93.42 0.42 90.78 0.39 89.42 0.39L89.42 0.39Q85.9 0.39 79.36 0.57 72.82 0.76 69.89 0.78L69.89 0.78 69.2 0Q69.1-0.68 69.1-0.88ZM134.91 0.88L124.51-36.01Q124.51-36.72 125.34-36.72L125.34-36.72Q127.71-36.72 132.27-36.77 136.82-36.82 139.06-36.82L139.06-36.82Q139.75-36.82 140.24-36.13L140.24-36.13 144.44-11.82Q144.83-14.16 145.83-18.42 146.83-22.68 147.12-24.07L147.12-24.07 149.56-36.28Q149.76-36.87 159.57-36.87L159.57-36.87 163.48-36.87Q163.94-36.69 164.06-36.04L164.06-36.04 158.6-16.26Q158.42-15.6 157.95-13.34 157.47-11.08 157-9.02 156.52-6.96 155.91-4.71 155.3-2.47 154.6-1 153.91 0.46 153.27 0.68L153.27 0.68Q152.39 0.68 150.66 0.61 148.93 0.54 148.05 0.54L148.05 0.54 146.29 0.54Q144.63 0.68 142.67 0.73 140.7 0.78 138.48 0.81 136.26 0.83 134.91 0.88L134.91 0.88Z" fill="white"></path></g></svg></g></svg></g></svg></g></svg></g><g></g></svg></g></svg></g></svg></g><g mask="url(#47197041-bb1d-47d1-97b7-10e3b5f3063a)"><g transform="matrix(3.4055555555555554, 0, 0, 3.4055555555555554, 34.29333333333332, 1)"><svg xmlns="http://www.w3.org/2000/svg" xmlns:xlink="http://www.w3.org/1999/xlink" version="1.1" x="0" y="0" viewBox="2 13.999998092651367 96 72" enable-background="new 0 0 100 100" xml:space="preserve" height="72" width="96" class="icon-none" data-fill-palette-color="accent" id="SvgjsSvg1665"></svg></g></g></svg></g><defs><mask></mask></defs></svg></g></mask><linearGradient x1="0.054" x2="0.941" y1="0.5" y2="0.5" id="3e7055e8-b182-41b6-94da-099ee158058b"><stop stop-color="#0f3054" offset="0"></stop><stop stop-color="#3b8dcb" offset="0.498"></stop><stop stop-color="#0f3054" offset="1"></stop></linearGradient><rect width="395.5199890136719" height="247.1999969482422" fill="url(#3e7055e8-b182-41b6-94da-099ee158058b)" mask="url(#ad1a4efd-5d91-4059-a793-6418eeaa9615)" data-fill-palette-color="primary"></rect><mask id="b4ce9e8d-60e0-43a7-8804-766133f2c2d8"><g id="SvgjsG1701"><svg viewBox="0 0 395.52 247.2" height="247.2" width="395.52"><g><svg></svg></g><g><svg viewBox="0 0 395.52 247.2" height="247.2" width="395.52"><mask id="SvgjsMask1700"></mask><g transform="matrix(1,0,0,1,68.57781663467173,37.08)"><svg viewBox="0 0 258.3643667306565 173.04" height="173.04" width="258.3643667306565"><g><svg viewBox="0 0 258.3643667306565 173.04" height="173.04" width="258.3643667306565"><g><svg viewBox="0 0 316.416 211.92018594839482" height="173.04" width="258.3643667306565"><g><svg viewBox="0 0 316.416 211.92018594839482" height="211.92018594839482" width="316.416"><g id="SvgjsG1698"><svg viewBox="0 0 316.416 211.92018594839482" height="211.92018594839482" width="316.416" id="SvgjsSvg1697"><g><svg viewBox="0 0 316.416 120.14133599202393" height="120.14133599202393" width="316.416"><g transform="matrix(1,0,0,1,0,0)"><svg width="316.416" viewBox="0.24000000953674316 -40.15999984741211 146.9199981689453 55.790000915527344" height="120.14133599202393" data-palette-color="url(#3e7055e8-b182-41b6-94da-099ee158058b)"></svg></g></svg></g><g transform="matrix(1,0,0,1,0,137.67284030532403)"><svg viewBox="0 0 316.416 74.24734564307079" height="74.24734564307079" width="316.416"><g transform="matrix(1,0,0,1,0,0)"><svg width="316.416" viewBox="2.5900001525878906 -37.0099983215332 161.47000122070312 37.88999938964844" height="74.24734564307079" data-palette-color="url(#bc070e74-00a5-492e-a4a2-3f79aec4803d)"><g class="slogan-text-1" data-fill-palette-color="secondary" id="SvgjsG1696"></g></svg></g></svg></g></svg></g></svg></g><g></g></svg></g></svg></g></svg></g><g mask="url(#47197041-bb1d-47d1-97b7-10e3b5f3063a)"><g transform="matrix(3.4055555555555554, 0, 0, 3.4055555555555554, 34.29333333333332, 1)"><svg xmlns="http://www.w3.org/2000/svg" xmlns:xlink="http://www.w3.org/1999/xlink" version="1.1" x="0" y="0" viewBox="2 13.999998092651367 96 72" enable-background="new 0 0 100 100" xml:space="preserve" height="72" width="96" class="icon-none" data-fill-palette-color="accent" id="SvgjsSvg1695"><path d="M65.9 62.4H7.6c-0.5 0-1-0.4-1-1V19.7c0-0.5 0.4-1 1-1H74c0.5 0 1 0.4 1 1v16.9c0.4 0 0.9-0.1 1.3-0.1h0.9 0.9c0.5 0 1 0 1.5 0.1v-17c0-3.1-2.5-5.6-5.6-5.6H7.6c-3.1 0-5.6 2.5-5.6 5.6v41.7c0 0 0 0 0 0.1V69c0 0 0 0.1 0 0.1v0.4c0 0 0 0.1 0 0.1v0.1h0c0.1 2.7 2.3 4.8 5 4.8h25.2c0 1.1-0.7 6.2-8.2 7.1h0.2c-1.2 0-2.2 1-2.2 2.2 0 1.2 1 2.2 2.2 2.2H52v-5.9c0-0.2 0-0.4 0-0.6-2.3-1.8-2.5-4.2-2.6-5h4.6c0.3-0.4 0.6-0.7 1-1 4-3.3 8.2-5.8 10.8-7.2V62.4zM40.8 71.7c-1.5 0-2.8-1.2-2.8-2.8 0-1.5 1.2-2.8 2.8-2.8s2.8 1.2 2.8 2.8C43.6 70.4 42.3 71.7 40.8 71.7zM96.5 76.9c1 0.8 1.5 2 1.5 3.2v5.9H77.2 56.4v-5.9c0-1.2 0.6-2.4 1.5-3.2 5.3-4.4 11-7.2 12.2-7.8 0.1-0.1 0.2-0.2 0.2-0.3v-8.3c-1-0.7-1.7-1.9-1.7-3.2v-8.6c0-4.3 3.5-7.7 7.7-7.7h0.9 0.9c4.3 0 7.7 3.5 7.7 7.7v8.6c0 1.3-0.7 2.5-1.7 3.2v8.3c0 0.1 0.1 0.3 0.2 0.3C85.5 69.6 91.2 72.5 96.5 76.9z" fill="white"></path></svg></g></g></svg></g><defs><mask></mask></defs><mask><g id="SvgjsG1694"><svg viewBox="0 0 395.52 247.2" height="247.2" width="395.52"><g><svg></svg></g><g><svg viewBox="0 0 395.52 247.2" height="247.2" width="395.52"><mask id="SvgjsMask1693"></mask><g transform="matrix(1,0,0,1,68.57781663467173,37.08)"><svg viewBox="0 0 258.3643667306565 173.04" height="173.04" width="258.3643667306565"><g><svg viewBox="0 0 258.3643667306565 173.04" height="173.04" width="258.3643667306565"><g><svg viewBox="0 0 316.416 211.92018594839482" height="173.04" width="258.3643667306565"><g><svg viewBox="0 0 316.416 211.92018594839482" height="211.92018594839482" width="316.416"><g id="SvgjsG1692"><svg viewBox="0 0 316.416 211.92018594839482" height="211.92018594839482" width="316.416" id="SvgjsSvg1691"><g><svg viewBox="0 0 316.416 120.14133599202393" height="120.14133599202393" width="316.416"><g transform="matrix(1,0,0,1,0,0)"><svg width="316.416" viewBox="0.24000000953674316 -40.15999984741211 146.9199981689453 55.790000915527344" height="120.14133599202393" data-palette-color="url(#3e7055e8-b182-41b6-94da-099ee158058b)"></svg></g></svg></g><g transform="matrix(1,0,0,1,0,137.67284030532403)"><svg viewBox="0 0 316.416 74.24734564307079" height="74.24734564307079" width="316.416"><g transform="matrix(1,0,0,1,0,0)"><svg width="316.416" viewBox="2.5900001525878906 -37.0099983215332 161.47000122070312 37.88999938964844" height="74.24734564307079" data-palette-color="url(#bc070e74-00a5-492e-a4a2-3f79aec4803d)"><g class="slogan-text-1" data-fill-palette-color="secondary" id="SvgjsG1689"></g></svg></g></svg></g></svg></g></svg></g><g></g></svg></g></svg></g></svg></g><g mask="url(#47197041-bb1d-47d1-97b7-10e3b5f3063a)"><g transform="matrix(3.4055555555555554, 0, 0, 3.4055555555555554, 34.29333333333332, 1)"><svg xmlns="http://www.w3.org/2000/svg" xmlns:xlink="http://www.w3.org/1999/xlink" version="1.1" x="0" y="0" viewBox="2 13.999998092651367 96 72" enable-background="new 0 0 100 100" xml:space="preserve" height="72" width="96" class="icon-none" data-fill-palette-color="accent" id="SvgjsSvg1688"></svg></g></g></svg></g><defs><mask></mask></defs></svg></g></mask></svg></g></mask><linearGradient x1="0" x2="1" y1="0.578" y2="0.595" id="e6840465-86c9-44f6-a96b-85d32d69a643"><stop stop-color="#6ee2f5" offset="0"></stop><stop stop-color="#6454f0" offset="1"></stop></linearGradient><rect width="395.5199890136719" height="247.1999969482422" fill="url(#e6840465-86c9-44f6-a96b-85d32d69a643)" mask="url(#b4ce9e8d-60e0-43a7-8804-766133f2c2d8)" data-fill-palette-color="accent"></rect></svg><rect width="395.52" height="247.2" fill="none" stroke="none" visibility="hidden"></rect></g></svg></g></svg>